<svg width="194" height="194" viewBox="0 0 194 194" fill="none" xmlns="http://www.w3.org/2000/svg">
<path d="M89.5355 24.8562C89.9902 24.8562 90.5586 25.0836 91.0512 25.7656C88.8535 22.6207 93.5141 23.9848 93.7793 20.9914C96.4316 19.0211 95.4844 17.7328 96.2422 17.657L97.0758 16.975C95.4465 17.5812 94.8781 17.6949 94.4234 17.6949H93.6656C93.0973 17.6949 92.15 17.8086 89.9145 18.4906C84.7992 18.8695 81.1238 24.4016 79.3809 24.5531C77.6 25.5004 77.6758 25.6898 78.0926 25.6898C78.2063 25.6898 78.3578 25.652 78.5094 25.652C78.6609 25.652 78.7746 25.6141 78.8883 25.6141C79.3051 25.6141 79.1914 25.8035 76.7664 26.9402C77.3348 27.0918 72.5227 29.2137 72.4848 32.548C72.3332 33.8363 72.8637 34.7078 73.7352 34.7078C74.493 34.7078 75.4402 34.1395 76.4633 32.6996C79.8734 28.759 87.0727 28.3801 90.1797 25.993C88.2473 25.8414 88.6262 24.8562 89.5355 24.8562ZM72.2195 26.1824C71.8785 26.1824 72.3332 25.7656 72.8258 25.3488C73.3562 24.932 73.9625 24.5152 73.9625 24.5152L73.9246 24.5531C75.9707 23.7574 74.7203 23.568 75.8191 23.0375H75.7434C75.516 23.0375 75.9328 22.7344 76.3117 22.3934C76.6906 22.0902 77.0316 21.7492 76.6906 21.7492C76.5012 21.7492 76.0086 21.8629 75.175 22.2039C75.4402 21.825 76.4633 21.5598 77.9031 20.7641C75.8191 21.4461 74.1898 21.8629 74.0004 21.8629C73.8488 21.8629 74.7203 21.5598 77.3348 20.7641C77.4484 20.7641 77.5621 20.802 77.6379 20.802C77.9031 20.802 78.0168 20.7262 77.9789 20.6504C77.941 20.5746 77.7895 20.5367 77.5242 20.5367C73.773 20.8398 70.9691 23.1891 71.8027 23.4922C72.2953 23.3406 72.6363 23.2648 72.8637 23.2648C73.3563 23.2648 73.1289 23.6816 72.1437 24.2879C72.5984 25.3488 64.5656 28.077 63.6562 29.0621C64.1109 28.7969 64.4141 28.7211 64.5656 28.7211C65.1719 28.7211 64.3762 29.8957 63.5805 30.4641C64.0731 30.9188 64.452 31.0703 64.7551 31.0703C65.5508 31.0703 65.8918 29.9715 66.5738 29.6305C66.7254 29.9336 66.877 30.0852 67.0664 30.0852C67.7105 30.0852 68.5062 28.4937 69.1504 27.6602C69.3398 27.8496 69.5672 28.0012 69.8703 28.0012C70.4766 28.0012 71.3859 27.5086 72.8258 26.1066C72.5227 26.1445 72.2953 26.1824 72.2195 26.1824ZM63.5047 33.1543C62.1406 33.9879 61.4207 34.3289 61.1176 34.3289C60.5492 34.3289 61.307 33.268 61.9891 32.1691C62.6711 31.1082 63.2773 30.0473 62.4059 30.0473C61.9891 30.0473 61.2312 30.2746 60.0187 30.8809C56.7223 33.0785 51.1523 39.141 48.6895 39.141H48.4621C52.4406 36.2234 51.266 30.502 56.8359 29.0242C62.3301 25.8793 66.0813 26.8645 70.9691 23.2648C69.5293 23.9848 67.4074 24.7805 66.9148 24.7805C66.6117 24.7805 67.0664 24.4016 69.0367 23.4543C68.8473 23.4922 68.6957 23.5301 68.582 23.5301C67.2559 23.5301 77.2969 19.9305 77.7895 19.8547C73.6594 20.423 66.9906 23.8711 66.0812 23.8711C65.9676 23.8711 65.9676 23.8332 65.9676 23.7574C66.1191 23.6438 66.1191 23.568 65.9676 23.568C65.475 23.568 63.4289 24.25 61.3449 24.932C59.2988 25.6141 57.2148 26.334 56.7602 26.334C56.6086 26.334 56.6086 26.2582 56.8359 26.1066C38.9516 36.2613 24.0227 53.3879 19.3621 73.6973C21.2945 78.1305 19.9684 86.5801 23.1512 89.043C26.7887 92.1121 20.0441 101.016 21.825 106.511C23.6437 116.438 31.4871 123.22 32.3207 133.375C33.7605 140.347 39.0273 148.872 41.225 153.305C42.8922 154.973 47.477 159.785 48.2727 159.785C48.5758 159.785 48.3863 159.065 47.1738 157.132C46.416 154.973 42.0207 149.327 44.1426 149.327C44.2562 149.327 44.3699 149.327 44.5215 149.365C41.907 146.713 50.3188 147.432 44.4457 143.833C43.7637 142.999 43.6121 142.734 43.7637 142.734C43.9531 142.734 44.4836 143.037 45.0898 143.34C45.734 143.643 46.4918 143.946 47.098 143.946C48.0453 143.946 48.6895 143.302 48.3105 140.953C48.4621 141.029 48.6137 141.029 48.7273 141.029C49.7125 141.029 49.3715 139.096 49.4473 137.164C49.523 135.232 50.0156 133.299 52.668 133.299C52.9711 133.299 53.3121 133.337 53.6531 133.375C59.7914 130.041 54.4488 120.833 61.4965 117.461C61.2313 109.807 50.9629 109.428 47.098 106.321C46.4539 106.7 45.8477 106.814 45.2414 106.814C44.5594 106.814 43.9531 106.662 43.4227 106.473C42.8922 106.321 42.3996 106.132 42.0586 106.132C41.9828 106.132 41.907 106.132 41.8312 106.17C48.4242 104.427 43.6121 95.257 38.1559 95.257H37.777C37.3602 91.2785 35.3141 92.7941 35.0867 89.4977C34.7457 89.6871 34.4047 89.7629 34.0637 89.7629C33.1543 89.7629 32.3207 89.1188 31.6008 88.5125C30.8809 87.8684 30.2746 87.2621 29.7441 87.2621C29.3273 87.2621 28.9484 87.6789 28.6074 88.8914C28.9863 87.0348 28.8727 86.4285 28.4937 86.4285C28.1148 86.4285 27.4328 87.0727 26.675 87.7168C25.9551 88.3609 25.1215 89.0051 24.4773 89.0051H24.2879C19.8547 85.8602 24.3258 80.2902 21.9766 76.0086C23.4922 74.3793 24.0984 71.6133 23.4164 71.6133C23.0754 71.6133 22.3934 72.2953 21.3324 74.152C19.8168 70.2871 23.8332 61.5344 27.2434 61.0418C27.357 61.0418 27.4328 61.0039 27.5465 61.0039C28.1527 61.0039 28.759 61.307 29.2895 61.9512C29.5926 63.732 28.8348 67.4832 29.1379 67.4832C29.2895 67.4832 29.5926 66.7254 30.3504 64.7551C31.3355 60.2461 38.2316 56.9875 38.9516 54.2215C38.9895 54.2594 38.9895 54.2594 39.0273 54.2594C39.823 54.2594 44.9383 49.7504 47.1738 49.2578C48.0453 48.3863 48.6516 48.0832 49.1063 48.0832C49.5988 48.0832 49.8641 48.4621 50.0535 48.8031C50.243 49.182 50.3945 49.523 50.584 49.523C50.7355 49.523 50.925 49.2957 51.266 48.6516C50.0914 46.3402 53.1227 44.1426 52.2891 44.1426C51.9859 44.1426 51.0766 44.4457 49.2199 45.2035C48.9168 45.3551 48.7652 45.393 48.6895 45.393C48.4621 45.393 49.3715 44.7867 50.6977 44.1805C52.0238 43.5742 53.691 42.968 55.093 42.968C55.775 42.968 56.3812 43.1195 56.8359 43.4984C62.709 42.0965 59.4883 40.1641 59.7914 40.1641H59.8672C61.5344 39.1789 61.0418 35.4656 63.5047 33.1543ZM37.2465 48.6516C37.1707 48.6516 37.5117 48.159 38.6484 46.757C40.9977 45.0141 42.8922 43.8395 40.7324 42.7027C41.6797 42.2859 42.5891 41.7934 43.4605 41.2629C43.4227 43.1195 41.8691 47.6285 41.0355 47.6285C40.8461 47.6285 40.6566 47.3633 40.5809 46.7949C41.0734 45.9234 41.1113 45.5824 40.9219 45.5824C40.6188 45.5824 39.7473 46.3402 38.9137 47.1359C38.0801 47.8559 37.3223 48.6516 37.2465 48.6516ZM39.4062 49.6746C38.3832 49.6746 38.5727 49.0305 41.7176 48.3863C43.0816 48.1969 42.0207 48.2727 43.65 47.8937C42.0586 49.182 40.2777 49.6746 39.4062 49.6746ZM98.3262 45.8477C98.7809 45.7719 99.1219 45.7719 99.3871 45.7719C100.486 45.7719 99.9934 46.2266 99.3492 46.6812C98.7051 47.1359 97.9094 47.5906 98.3641 47.5906C98.6293 47.5906 99.3492 47.4391 100.827 47.0223C108.291 46.4918 97.9094 40.1641 99.5766 38.0422L99.1219 37.8906C96.0527 41.7934 101.168 41.8691 98.3262 45.8477ZM95.2191 45.9992C95.7496 45.9992 96.4316 45.393 97.1516 43.6879C98.1367 42.5133 97.7199 42.3617 96.659 41.7934C93.7414 42.5512 94.0066 45.9992 95.2191 45.9992ZM121.364 58.0105C121.25 58.0105 121.174 58.0484 121.098 58.0863C121.402 58.1621 121.705 58.2379 122.008 58.2379C121.705 58.0863 121.515 58.0105 121.364 58.0105ZM172.251 67.4453C172.895 68.8473 173.236 69.4156 173.274 69.4156C173.539 69.4156 168.5 57.1391 166.416 54.9414C155.541 37.057 137.657 23.3785 117.271 18.2633H117.234C116.703 18.2633 117.309 18.5285 118.029 18.7937C118.749 19.059 119.621 19.3242 119.621 19.3242C119.621 19.3242 119.052 19.1348 117.309 18.6422C115.377 18.0738 113.407 17.657 111.398 17.5055C111.057 17.6191 119.696 21.0293 125.494 22.8102C123.561 22.2039 121.553 21.6734 121.061 21.6734C120.72 21.6734 121.061 21.9008 122.463 22.507C120.757 22.0145 120.038 21.7871 119.962 21.7871C119.848 21.7871 122.235 22.5828 124.471 23.3785C126.744 24.1742 128.904 24.9699 128.298 24.9699C128.146 24.9699 127.729 24.8941 127.085 24.7805C129.018 25.8414 129.7 26.2582 129.586 26.2582C129.396 26.2582 127.009 25.1215 124.546 23.9848C122.121 22.848 119.659 21.7113 119.318 21.7113C119.128 21.7113 119.621 22.0902 121.288 23.0754C123.561 24.0605 125.835 25.0457 125.191 25.0457C124.887 25.0457 124.016 24.8563 122.311 24.3637C126.1 26.2961 119.621 25.5383 121.818 28.1527C120.606 27.016 120.113 26.6371 120 26.6371C119.886 26.6371 120.189 27.0918 120.492 27.5465C120.795 28.0012 121.023 28.4559 120.757 28.4559H120.682C123.334 31.3355 118.825 28.759 122.046 31.3355C119.621 30.2367 115.491 28.418 117.347 28.418C117.802 28.418 118.673 28.5316 120.037 28.8348C117.575 25.9551 110.603 25.8414 110.451 25.5004C108.708 25.6141 108.67 26.9402 108.973 29.3652C108.936 33.1922 105.184 33.268 105.677 35.4656C105.677 35.4277 105.715 35.4277 105.715 35.4277C105.791 35.4277 105.829 36.1855 106.056 36.9813C106.321 37.7391 106.776 38.5348 107.761 38.5348C108.291 38.5348 108.973 38.3074 109.807 37.7391C110.982 39.8609 112.043 40.6187 112.876 40.6187C114.127 40.6187 114.884 38.9137 114.809 37.3602C113.445 36.6023 111.664 30.3125 113.634 30.3125C113.937 30.3125 114.316 30.4641 114.809 30.8051C111.739 38.3453 126.934 33.3059 118.332 36.7539C120.265 39.2926 117.12 39.1789 118.029 42.248C116.552 42.6648 114.922 43.0438 113.482 43.0438C111.361 43.0438 109.731 42.1344 109.921 38.9516C107.268 40.3535 112.573 45.0898 107.306 45.0898H107.003C104.464 49.7504 94.9539 48.159 102.418 53.0848C102.835 55.2445 101.471 55.6234 99.7281 55.6234C99.2734 55.6234 98.7809 55.5855 98.2883 55.5477C97.7957 55.5098 97.3031 55.5098 96.8484 55.5098C94.8781 55.5098 93.4762 56.0023 94.6887 59.0715C93.8172 62.2543 95.8633 63.6562 98.3641 63.6562C101.395 63.6562 105.109 61.6859 105.374 58.4273C107.003 55.9645 109.087 54.9414 111.247 54.9414C114.657 54.9414 118.257 57.518 120.606 60.7008C120.795 61.0039 120.947 61.1176 121.023 61.1176C121.212 61.1176 121.023 60.3598 120.947 59.602C120.871 58.9957 120.871 58.3895 121.098 58.2C117.726 57.2527 115.15 53.1605 116.286 53.1605C116.665 53.1605 117.461 53.6152 118.749 54.8277H118.939C121.061 54.8277 122.728 56.4949 124.016 58.1621C125.342 59.8293 126.327 61.4965 127.199 61.4965C127.54 61.4965 127.881 61.1934 128.184 60.5113C128.032 60.284 127.654 59.6398 127.464 58.9957C127.237 58.2 127.237 57.4043 128.26 57.4043C128.677 57.4043 129.245 57.5559 130.041 57.859C132.617 57.177 128.411 50.4703 131.821 50.4703C132.162 50.4703 132.579 50.5461 133.11 50.6977C133.072 51.8723 133.602 52.2891 134.095 52.2891C135.08 52.2891 136.065 50.8871 133.678 50.4703C134.587 49.5988 135.118 49.2578 135.497 49.2578C136.823 49.2578 135.762 53.6531 140.347 53.6531C141.9 57.3285 126.858 53.9184 131.67 60.966C132.769 61.7617 134.133 61.9133 135.459 61.9133C135.876 61.9133 136.255 61.9133 136.634 61.8754C137.012 61.8754 137.391 61.8375 137.732 61.8375C140.082 61.8375 141.749 62.4059 140.726 67.2559C139.475 68.1652 138.073 68.4684 136.634 68.4684C135.345 68.4684 134.057 68.241 132.807 68.0137C131.556 67.7863 130.344 67.559 129.245 67.559C127.54 67.559 126.176 68.1273 125.342 70.0977C120.909 68.2789 115.074 68.2031 115.642 62.709C107.913 63.8078 99.8418 63.2395 94.1582 67.9758C93.8172 74.9098 81.9195 77.1453 84.7992 85.0266C81.3512 92.3016 88.9672 102.494 96.7348 102.494C97 102.494 97.3031 102.494 97.5684 102.456C101.812 102.418 106.094 100.524 109.845 100.524C111.777 100.524 113.52 101.016 115.036 102.532C115.377 102.494 115.68 102.456 115.945 102.456C121.743 102.456 114.089 111.664 121.023 113.217C127.312 119.734 117.158 126.441 122.121 132.693C122.652 137.581 125.077 141.673 125.077 146.447C125.721 146.523 126.327 146.561 126.971 146.561C134.966 146.561 139.968 139.589 144.666 134.322C143.227 126.441 155.844 124.887 151.525 116.059C149.516 106.397 161.035 100.675 160.391 91.0133C160.505 89.6492 160.126 89.2324 159.557 89.2324C158.989 89.2324 158.155 89.6492 157.36 90.0281C156.526 90.4449 155.617 90.8238 154.897 90.8238C153.95 90.8238 153.23 90.1797 153.154 88.0578C147.584 82.8668 145.045 75.8191 139.854 70.0977C146.599 73.3562 150.426 80.707 153.533 87.3758C153.798 87.4516 154.063 87.4894 154.366 87.4894C159.861 87.4894 167.514 74.3414 159.179 71.1586C158.724 72.409 158.118 72.8637 157.398 72.8637C156.147 72.8637 154.707 71.348 153.684 69.8703C152.661 68.3547 152.131 66.8391 152.699 66.8391C153.078 66.8391 153.912 67.4453 155.352 69.0367C156.981 70.0598 158.572 70.325 160.239 70.325C161.869 70.325 163.536 70.0598 165.279 69.9082C167.477 70.7797 168.424 73.5836 169.106 73.5836C169.22 73.5836 169.371 73.4699 169.485 73.2047C171.228 77.3727 173.236 84.7992 175.055 86.8074C174.107 80.4418 173.88 73.6973 172.251 67.4453ZM151.108 58.6926C146.826 57.5937 145.424 52.2891 142.052 49.2199C142.014 48.3863 143.264 48.5379 142.961 47.1359C147.508 48.5379 146.03 49.9398 145.614 50.2051C147.281 52.9711 151.941 54.8656 151.108 58.6926ZM92.2637 29.8578C88.1336 31.0703 87.5652 29.7441 88.2852 32.2828C88.5883 32.5102 89.1566 32.5859 89.725 32.5859C91.7332 32.6238 94.4613 31.4492 92.2637 29.8578ZM152.927 134.246C158.345 129.662 159.027 124.205 159.292 118.673C156.867 123.41 149.668 128.639 152.927 134.246ZM128.26 60.3598C128.222 60.3977 128.222 60.3977 128.222 60.4355C128.26 60.5113 128.298 60.5113 128.298 60.5113C128.298 60.5113 128.298 60.4734 128.26 60.3598ZM97 0C43.4227 0 0 43.4227 0 97C0 150.577 43.4227 194 97 194C150.577 194 194 150.577 194 97C194 43.4227 150.577 0 97 0ZM97 186.536C47.5527 186.536 7.46445 146.447 7.46445 97C7.46445 47.5527 47.5527 7.46445 97 7.46445C146.447 7.46445 186.536 47.5527 186.536 97C186.536 146.447 146.447 186.536 97 186.536Z" fill="black"/>
</svg>
