<svg width="143" height="143" viewBox="0 0 143 143" fill="none" xmlns="http://www.w3.org/2000/svg">
<path fill-rule="evenodd" clip-rule="evenodd" d="M88.9979 102.792L130.803 61.109C136.823 55.1104 139.833 52.1075 141.413 48.2966C143 44.4715 143 40.2317 143 31.7449V27.691C143 14.6356 143 8.10783 138.932 4.05391C134.864 -4.26159e-07 128.322 0 115.23 0H111.155C102.647 0 98.3926 -3.19619e-07 94.5675 1.5801C90.7353 3.16019 87.7252 6.16309 81.698 12.1617L39.9005 53.8448C32.8651 60.8516 28.5037 65.2058 26.8164 69.4027C26.2902 70.6772 26.0182 72.0421 26.0156 73.4209C26.0156 79.155 30.6415 83.7738 39.9005 93.0041L41.1445 94.241L55.7157 79.4481C56.2101 78.9463 56.7984 78.5467 57.4472 78.2722C58.0959 77.9978 58.7924 77.8538 59.4968 77.8484C60.2012 77.8431 60.8998 77.9766 61.5526 78.2413C62.2055 78.506 62.7998 78.8966 63.3016 79.3909C63.8035 79.8853 64.203 80.4736 64.4775 81.1224C64.752 81.7712 64.896 82.4676 64.9013 83.172C64.9066 83.8765 64.7731 84.575 64.5085 85.2279C64.2438 85.8807 63.8532 86.475 63.3588 86.9768L48.7376 101.813L49.7171 102.792C58.976 112.015 63.6091 116.634 69.3575 116.634C70.6301 116.634 71.8456 116.412 73.0682 115.962C77.3795 114.375 81.7838 109.985 88.9979 102.792ZM108.638 53.8448C106.03 56.4431 102.499 57.9019 98.8181 57.9019C95.1368 57.9019 91.6057 56.4431 88.9979 53.8448C87.709 52.5614 86.6863 51.0361 85.9885 49.3564C85.2907 47.6767 84.9315 45.8757 84.9315 44.0568C84.9315 42.2379 85.2907 40.437 85.9885 38.7573C86.6863 37.0776 87.709 35.5522 88.9979 34.2688C91.6057 31.6706 95.1368 30.2117 98.8181 30.2117C102.499 30.2117 106.03 31.6706 108.638 34.2688C109.927 35.5522 110.95 37.0776 111.648 38.7573C112.345 40.437 112.705 42.2379 112.705 44.0568C112.705 45.8757 112.345 47.6767 111.648 49.3564C110.95 51.0361 109.927 52.5614 108.638 53.8448Z" fill="black"/>
<path opacity="0.5" d="M50.2899 28.3343L32.108 46.4733C28.7691 49.8051 25.7019 52.858 23.2781 55.625C21.6401 57.4509 20.1596 59.4121 18.8524 61.4878L18.6808 61.309L18.0016 60.6369C14.8387 57.5711 11.1215 55.135 7.04813 53.4586L6.16871 53.1011L3.45895 52.0286C2.61507 51.6959 1.86732 51.1583 1.28321 50.4643C0.699102 49.7703 0.297019 48.9418 0.113259 48.0535C-0.0705011 47.1652 -0.0301517 46.2451 0.230662 45.3763C0.491476 44.5075 0.964543 43.7173 1.60716 43.0771C9.61489 35.0837 19.2313 25.4959 23.8787 23.5726C27.9131 21.8796 32.3315 21.3137 36.6624 21.9353C40.5662 22.5144 44.2555 24.5235 50.2899 28.3343ZM81.3413 123.784C82.807 125.271 83.7722 126.322 84.6588 127.444C85.817 128.924 86.8538 130.497 87.7618 132.149C88.777 134.008 89.5707 135.988 91.1508 139.956C91.4622 140.706 91.9534 141.367 92.5809 141.881C93.2085 142.395 93.953 142.747 94.7487 142.905C95.5445 143.064 96.367 143.023 97.1436 142.788C97.9202 142.553 98.6269 142.131 99.2014 141.558L99.802 140.964C107.81 132.978 117.426 123.39 119.357 118.764C121.052 114.746 121.618 110.34 120.994 106.024C120.415 102.127 118.406 98.4449 114.581 92.4248L96.3343 110.614C92.9167 114.024 89.7852 117.149 86.9467 119.594C85.2522 121.067 83.3933 122.525 81.3413 123.784Z" fill="black"/>
</svg>
